<mxfile host="app.diagrams.net" modified="2023-05-30T01:04:24.416Z" agent="Mozilla/5.0 (Windows NT 10.0; Win64; x64) AppleWebKit/537.36 (KHTML, like Gecko) Chrome/113.0.0.0 Safari/537.36" etag="wcjIu-NSkxvzKgZpIWlq" version="21.3.4" type="device">
  <diagram name="페이지-1" id="oa6i6bAGshSnb8NF4-cH">
    <mxGraphModel dx="761" dy="984" grid="1" gridSize="10" guides="1" tooltips="1" connect="1" arrows="1" fold="1" page="1" pageScale="1" pageWidth="4681" pageHeight="3300" math="0" shadow="0">
      <root>
        <mxCell id="0" />
        <mxCell id="1" parent="0" />
        <mxCell id="aXTQhnfww214n-Et7McX-14" style="rounded=0;orthogonalLoop=1;jettySize=auto;html=1;exitX=0.5;exitY=1;exitDx=0;exitDy=0;" edge="1" parent="1" source="aXTQhnfww214n-Et7McX-1" target="aXTQhnfww214n-Et7McX-5">
          <mxGeometry relative="1" as="geometry" />
        </mxCell>
        <mxCell id="aXTQhnfww214n-Et7McX-15" style="edgeStyle=none;shape=connector;rounded=0;orthogonalLoop=1;jettySize=auto;html=1;labelBackgroundColor=default;strokeColor=default;fontFamily=Helvetica;fontSize=11;fontColor=default;endArrow=classic;exitX=0.5;exitY=1;exitDx=0;exitDy=0;" edge="1" parent="1" source="aXTQhnfww214n-Et7McX-1" target="aXTQhnfww214n-Et7McX-9">
          <mxGeometry relative="1" as="geometry" />
        </mxCell>
        <mxCell id="aXTQhnfww214n-Et7McX-16" style="edgeStyle=none;shape=connector;rounded=0;orthogonalLoop=1;jettySize=auto;html=1;labelBackgroundColor=default;strokeColor=default;fontFamily=Helvetica;fontSize=11;fontColor=default;endArrow=classic;exitX=0.5;exitY=1;exitDx=0;exitDy=0;" edge="1" parent="1" source="aXTQhnfww214n-Et7McX-1" target="aXTQhnfww214n-Et7McX-10">
          <mxGeometry relative="1" as="geometry" />
        </mxCell>
        <mxCell id="aXTQhnfww214n-Et7McX-17" style="edgeStyle=none;shape=connector;rounded=0;orthogonalLoop=1;jettySize=auto;html=1;labelBackgroundColor=default;strokeColor=default;fontFamily=Helvetica;fontSize=11;fontColor=default;endArrow=classic;exitX=0.5;exitY=1;exitDx=0;exitDy=0;" edge="1" parent="1" source="aXTQhnfww214n-Et7McX-1" target="aXTQhnfww214n-Et7McX-11">
          <mxGeometry relative="1" as="geometry" />
        </mxCell>
        <mxCell id="aXTQhnfww214n-Et7McX-18" style="edgeStyle=none;shape=connector;rounded=0;orthogonalLoop=1;jettySize=auto;html=1;labelBackgroundColor=default;strokeColor=default;fontFamily=Helvetica;fontSize=11;fontColor=default;endArrow=classic;exitX=0.5;exitY=1;exitDx=0;exitDy=0;" edge="1" parent="1" source="aXTQhnfww214n-Et7McX-1" target="aXTQhnfww214n-Et7McX-12">
          <mxGeometry relative="1" as="geometry" />
        </mxCell>
        <mxCell id="aXTQhnfww214n-Et7McX-1" value="상품정보&lt;br style=&quot;font-size: 20px;&quot;&gt;" style="rounded=1;arcSize=10;whiteSpace=wrap;html=1;align=center;fontSize=20;" vertex="1" parent="1">
          <mxGeometry x="380" y="70" width="130" height="70" as="geometry" />
        </mxCell>
        <mxCell id="aXTQhnfww214n-Et7McX-5" value="&lt;font style=&quot;font-size: 20px;&quot;&gt;상품코드&lt;/font&gt;" style="ellipse;whiteSpace=wrap;html=1;align=center;fontStyle=4;" vertex="1" parent="1">
          <mxGeometry x="20" y="420" width="160" height="90" as="geometry" />
        </mxCell>
        <mxCell id="aXTQhnfww214n-Et7McX-9" value="상품명" style="ellipse;whiteSpace=wrap;html=1;align=center;fontSize=20;" vertex="1" parent="1">
          <mxGeometry x="210" y="420" width="140" height="90" as="geometry" />
        </mxCell>
        <mxCell id="aXTQhnfww214n-Et7McX-10" value="품목" style="ellipse;whiteSpace=wrap;html=1;align=center;fontSize=20;" vertex="1" parent="1">
          <mxGeometry x="375" y="420" width="140" height="90" as="geometry" />
        </mxCell>
        <mxCell id="aXTQhnfww214n-Et7McX-11" value="매출단가" style="ellipse;whiteSpace=wrap;html=1;align=center;fontSize=20;" vertex="1" parent="1">
          <mxGeometry x="540" y="420" width="140" height="90" as="geometry" />
        </mxCell>
        <mxCell id="aXTQhnfww214n-Et7McX-12" value="매입단가" style="ellipse;whiteSpace=wrap;html=1;align=center;fontSize=20;" vertex="1" parent="1">
          <mxGeometry x="700" y="420" width="140" height="90" as="geometry" />
        </mxCell>
        <mxCell id="aXTQhnfww214n-Et7McX-63" style="rounded=0;orthogonalLoop=1;jettySize=auto;html=1;exitX=0.5;exitY=1;exitDx=0;exitDy=0;" edge="1" source="aXTQhnfww214n-Et7McX-68" target="aXTQhnfww214n-Et7McX-69" parent="1">
          <mxGeometry relative="1" as="geometry" />
        </mxCell>
        <mxCell id="aXTQhnfww214n-Et7McX-64" style="edgeStyle=none;shape=connector;rounded=0;orthogonalLoop=1;jettySize=auto;html=1;labelBackgroundColor=default;strokeColor=default;fontFamily=Helvetica;fontSize=11;fontColor=default;endArrow=classic;exitX=0.5;exitY=1;exitDx=0;exitDy=0;" edge="1" source="aXTQhnfww214n-Et7McX-68" target="aXTQhnfww214n-Et7McX-70" parent="1">
          <mxGeometry relative="1" as="geometry" />
        </mxCell>
        <mxCell id="aXTQhnfww214n-Et7McX-65" style="edgeStyle=none;shape=connector;rounded=0;orthogonalLoop=1;jettySize=auto;html=1;labelBackgroundColor=default;strokeColor=default;fontFamily=Helvetica;fontSize=11;fontColor=default;endArrow=classic;exitX=0.5;exitY=1;exitDx=0;exitDy=0;" edge="1" source="aXTQhnfww214n-Et7McX-68" target="aXTQhnfww214n-Et7McX-71" parent="1">
          <mxGeometry relative="1" as="geometry" />
        </mxCell>
        <mxCell id="aXTQhnfww214n-Et7McX-66" style="edgeStyle=none;shape=connector;rounded=0;orthogonalLoop=1;jettySize=auto;html=1;labelBackgroundColor=default;strokeColor=default;fontFamily=Helvetica;fontSize=11;fontColor=default;endArrow=classic;exitX=0.5;exitY=1;exitDx=0;exitDy=0;" edge="1" source="aXTQhnfww214n-Et7McX-68" target="aXTQhnfww214n-Et7McX-72" parent="1">
          <mxGeometry relative="1" as="geometry" />
        </mxCell>
        <mxCell id="aXTQhnfww214n-Et7McX-68" value="고객정보" style="rounded=1;arcSize=10;whiteSpace=wrap;html=1;align=center;fontSize=20;" vertex="1" parent="1">
          <mxGeometry x="410" y="680" width="130" height="70" as="geometry" />
        </mxCell>
        <mxCell id="aXTQhnfww214n-Et7McX-69" value="&lt;font style=&quot;font-size: 20px;&quot;&gt;고객ID&lt;/font&gt;" style="ellipse;whiteSpace=wrap;html=1;align=center;fontStyle=4;" vertex="1" parent="1">
          <mxGeometry x="140" y="950" width="160" height="90" as="geometry" />
        </mxCell>
        <mxCell id="aXTQhnfww214n-Et7McX-70" value="고객이름" style="ellipse;whiteSpace=wrap;html=1;align=center;fontSize=20;" vertex="1" parent="1">
          <mxGeometry x="330" y="950" width="140" height="90" as="geometry" />
        </mxCell>
        <mxCell id="aXTQhnfww214n-Et7McX-71" value="전화번호" style="ellipse;whiteSpace=wrap;html=1;align=center;fontSize=20;" vertex="1" parent="1">
          <mxGeometry x="495" y="950" width="140" height="90" as="geometry" />
        </mxCell>
        <mxCell id="aXTQhnfww214n-Et7McX-72" value="주소" style="ellipse;whiteSpace=wrap;html=1;align=center;fontSize=20;" vertex="1" parent="1">
          <mxGeometry x="660" y="950" width="140" height="90" as="geometry" />
        </mxCell>
        <mxCell id="aXTQhnfww214n-Et7McX-74" style="rounded=0;orthogonalLoop=1;jettySize=auto;html=1;exitX=0.5;exitY=1;exitDx=0;exitDy=0;" edge="1" source="aXTQhnfww214n-Et7McX-79" target="aXTQhnfww214n-Et7McX-80" parent="1">
          <mxGeometry relative="1" as="geometry" />
        </mxCell>
        <mxCell id="aXTQhnfww214n-Et7McX-75" style="edgeStyle=none;shape=connector;rounded=0;orthogonalLoop=1;jettySize=auto;html=1;labelBackgroundColor=default;strokeColor=default;fontFamily=Helvetica;fontSize=11;fontColor=default;endArrow=classic;exitX=0.5;exitY=1;exitDx=0;exitDy=0;" edge="1" source="aXTQhnfww214n-Et7McX-79" target="aXTQhnfww214n-Et7McX-81" parent="1">
          <mxGeometry relative="1" as="geometry" />
        </mxCell>
        <mxCell id="aXTQhnfww214n-Et7McX-76" style="edgeStyle=none;shape=connector;rounded=0;orthogonalLoop=1;jettySize=auto;html=1;labelBackgroundColor=default;strokeColor=default;fontFamily=Helvetica;fontSize=11;fontColor=default;endArrow=classic;exitX=0.5;exitY=1;exitDx=0;exitDy=0;" edge="1" source="aXTQhnfww214n-Et7McX-79" target="aXTQhnfww214n-Et7McX-82" parent="1">
          <mxGeometry relative="1" as="geometry" />
        </mxCell>
        <mxCell id="aXTQhnfww214n-Et7McX-77" style="edgeStyle=none;shape=connector;rounded=0;orthogonalLoop=1;jettySize=auto;html=1;labelBackgroundColor=default;strokeColor=default;fontFamily=Helvetica;fontSize=11;fontColor=default;endArrow=classic;exitX=0.5;exitY=1;exitDx=0;exitDy=0;" edge="1" source="aXTQhnfww214n-Et7McX-79" target="aXTQhnfww214n-Et7McX-83" parent="1">
          <mxGeometry relative="1" as="geometry" />
        </mxCell>
        <mxCell id="aXTQhnfww214n-Et7McX-78" style="edgeStyle=none;shape=connector;rounded=0;orthogonalLoop=1;jettySize=auto;html=1;labelBackgroundColor=default;strokeColor=default;fontFamily=Helvetica;fontSize=11;fontColor=default;endArrow=classic;exitX=0.5;exitY=1;exitDx=0;exitDy=0;" edge="1" source="aXTQhnfww214n-Et7McX-79" target="aXTQhnfww214n-Et7McX-84" parent="1">
          <mxGeometry relative="1" as="geometry" />
        </mxCell>
        <mxCell id="aXTQhnfww214n-Et7McX-79" value="판매내역" style="rounded=1;arcSize=10;whiteSpace=wrap;html=1;align=center;fontSize=20;" vertex="1" parent="1">
          <mxGeometry x="1280" y="340" width="130" height="70" as="geometry" />
        </mxCell>
        <mxCell id="aXTQhnfww214n-Et7McX-80" value="&lt;span style=&quot;font-size: 20px;&quot;&gt;SEQ&lt;/span&gt;" style="ellipse;whiteSpace=wrap;html=1;align=center;fontStyle=4;" vertex="1" parent="1">
          <mxGeometry x="760" y="760" width="160" height="90" as="geometry" />
        </mxCell>
        <mxCell id="aXTQhnfww214n-Et7McX-81" value="거래일자" style="ellipse;whiteSpace=wrap;html=1;align=center;fontSize=20;" vertex="1" parent="1">
          <mxGeometry x="950" y="760" width="140" height="90" as="geometry" />
        </mxCell>
        <mxCell id="aXTQhnfww214n-Et7McX-82" value="거래시각" style="ellipse;whiteSpace=wrap;html=1;align=center;fontSize=20;" vertex="1" parent="1">
          <mxGeometry x="1115" y="760" width="140" height="90" as="geometry" />
        </mxCell>
        <mxCell id="aXTQhnfww214n-Et7McX-83" value="고객ID" style="ellipse;whiteSpace=wrap;html=1;align=center;fontSize=20;" vertex="1" parent="1">
          <mxGeometry x="1280" y="760" width="140" height="90" as="geometry" />
        </mxCell>
        <mxCell id="aXTQhnfww214n-Et7McX-84" value="상품코드" style="ellipse;whiteSpace=wrap;html=1;align=center;fontSize=20;" vertex="1" parent="1">
          <mxGeometry x="1440" y="760" width="140" height="90" as="geometry" />
        </mxCell>
        <mxCell id="aXTQhnfww214n-Et7McX-85" style="shape=connector;rounded=0;orthogonalLoop=1;jettySize=auto;html=1;labelBackgroundColor=default;strokeColor=default;fontFamily=Helvetica;fontSize=11;fontColor=default;endArrow=classic;exitX=0.5;exitY=1;exitDx=0;exitDy=0;entryX=0.5;entryY=0;entryDx=0;entryDy=0;" edge="1" parent="1" source="aXTQhnfww214n-Et7McX-79" target="aXTQhnfww214n-Et7McX-86">
          <mxGeometry relative="1" as="geometry">
            <mxPoint x="1225" y="500" as="sourcePoint" />
            <mxPoint x="1640" y="690" as="targetPoint" />
          </mxGeometry>
        </mxCell>
        <mxCell id="aXTQhnfww214n-Et7McX-86" value="수량" style="ellipse;whiteSpace=wrap;html=1;align=center;fontSize=20;" vertex="1" parent="1">
          <mxGeometry x="1600" y="760" width="140" height="90" as="geometry" />
        </mxCell>
        <mxCell id="aXTQhnfww214n-Et7McX-87" value="단가" style="ellipse;whiteSpace=wrap;html=1;align=center;fontSize=20;" vertex="1" parent="1">
          <mxGeometry x="1760" y="760" width="140" height="90" as="geometry" />
        </mxCell>
        <mxCell id="aXTQhnfww214n-Et7McX-88" style="shape=connector;rounded=0;orthogonalLoop=1;jettySize=auto;html=1;labelBackgroundColor=default;strokeColor=default;fontFamily=Helvetica;fontSize=11;fontColor=default;endArrow=classic;exitX=0.5;exitY=1;exitDx=0;exitDy=0;entryX=0.5;entryY=0;entryDx=0;entryDy=0;" edge="1" parent="1" source="aXTQhnfww214n-Et7McX-79" target="aXTQhnfww214n-Et7McX-87">
          <mxGeometry relative="1" as="geometry">
            <mxPoint x="1225" y="500" as="sourcePoint" />
            <mxPoint x="1680" y="770" as="targetPoint" />
          </mxGeometry>
        </mxCell>
      </root>
    </mxGraphModel>
  </diagram>
</mxfile>
